HIERARCHY
ROOT pelvis
{
  OFFSET 0 100 0
  CHANNELS 6 Xposition Yposition Zposition Zrotation Xrotation Yrotation
  JOINT pelvis_right_femur
  {
    OFFSET -10.78128 -3.44521 -0.5502486
    CHANNELS 3 Zrotation Xrotation Yrotation
    JOINT right_femur_tibia
    {
      OFFSET -0.8047443 -44.0398 -0.1307829
      CHANNELS 3 Zrotation Xrotation Yrotation
      JOINT right_tibia_foot
      {
        OFFSET 3.006224 -47.83518 -5
        CHANNELS 3 Zrotation Xrotation Yrotation
        End Site
        {
          OFFSET 0 -5 15
        }
      }
    }
  }
  JOINT pelvis_left_femur
  {
    OFFSET 10.78128 -3.44521 -0.5502486
    CHANNELS 3 Zrotation Xrotation Yrotation
    JOINT left_femur_tibia
    {
      OFFSET 0.8047443 -44.0398 -0.1307829
      CHANNELS 3 Zrotation Xrotation Yrotation
      JOINT left_tibia_foot
      {
        OFFSET -4.370144 -48.10324 -4.275266
        CHANNELS 3 Zrotation Xrotation Yrotation
        End Site
        {
          OFFSET 0 -5 15
        }
      }
    }
  }
  JOINT pelvis_spine1
  {
    OFFSET 0 6.468898 -3.129235
    CHANNELS 3 Zrotation Xrotation Yrotation
    JOINT spine1
    {
      OFFSET 0 23.15396 4.99043
      CHANNELS 3 Zrotation Xrotation Yrotation
      JOINT spine2
      {
        OFFSET 0 20.79997 -5.064912
        CHANNELS 3 Zrotation Xrotation Yrotation
        JOINT neck
        {
          OFFSET 0 14.38658 9.616178
          CHANNELS 3 Zrotation Xrotation Yrotation
          End Site
          {
            OFFSET 0 20 0
          }
        }
      }
      JOINT right_manubrium
      {
        OFFSET -5.722621 16.35077 3.967754
        CHANNELS 3 Zrotation Xrotation Yrotation
        JOINT right_clavicle
        {
          OFFSET -13.16364 1.694482 -4.693211
          CHANNELS 3 Zrotation Xrotation Yrotation
          JOINT right_humerus
          {
            OFFSET -28.5034 -0.3100689 -2.792744
            CHANNELS 3 Zrotation Xrotation Yrotation
            JOINT right_radius
            {
              OFFSET -25.15693 0.02248979 -1.271978
              CHANNELS 3 Zrotation Xrotation Yrotation
              End Site
              {
                OFFSET -15 0 0
              }
            }
          }
        }
      }
      JOINT left_manubrium
      {
        OFFSET 5.722621 16.35077 3.967754
        CHANNELS 3 Zrotation Xrotation Yrotation
        JOINT left_clavicle
        {
          OFFSET 13.16364 1.694482 -4.693211
          CHANNELS 3 Zrotation Xrotation Yrotation
          JOINT left_humerus
          {
            OFFSET 29.39168 -1.063119 -2.237045
            CHANNELS 3 Zrotation Xrotation Yrotation
            JOINT left_radius
            {
              OFFSET 24.59957 -0.9528479 0.9047498
              CHANNELS 3 Zrotation Xrotation Yrotation
              End Site
              {
                OFFSET 15 -0 -0
              }
            }
          }
        }
      }
    }
  }
}
MOTION
Frames: 23
Frame Time: 0.0416666666667
0 103.5113 0 -0.2625137 -3.359038 -0.04851297 4.636 -12.35861 8.231893 -0 40.13734 -0 -9.069452 -18.00016 -5.713701 -4.52541 9.07844 -20.79287 -0 6.094134 -0 8.757306 -12.30007 23.97982 -2.1756 -2.189696 4.709559 2.745465 9.324015 -7.639917 1.229476 20.33081 7.231934 4.10509 -25.63004 9.081501 5.990887 -18.76316 11.21162 84.89921 35.44363 -18.18107 -0 0 15.86404 -9.217672 9.625846 4.636746 7.182561 -20.87222 -0.8113415 -92.91083 21.25369 20.88257 0 0 -14.16599 12.01925 14.67505 -0.8372449
0.2943754 103.6532 1.615105 -0.4835625 -2.64601 -0.01689941 5.306673 -14.89482 8.616022 -0 39.92309 -0 -8.508139 -17.91038 -5.786921 -4.507385 9.506002 -20.71962 -0 6.184607 -0 8.627372 -13.31386 23.59318 -2.17171 -2.221372 4.497732 2.913103 9.299306 -7.84795 1.220502 20.25898 7.418124 4.119808 -26.08792 9.370187 5.978584 -18.43776 11.19419 85.48799 35.4743 -19.06926 -0 0 15.01487 -9.113127 9.796213 4.499629 7.345352 -21.11381 -0.7267222 -92.4906 21.0188 20.04536 0 0 -14.89005 12.77325 14.63418 -1.678969
0.5597066 103.7272 3.337202 -0.4964774 -1.835207 0.07013386 5.77205 -18.34179 8.230511 -0 37.65464 -0 -7.940257 -15.69919 -5.08294 -4.856685 10.57374 -20.55477 -0 7.045406 -0 8.04733 -15.46417 23.34249 -2.153755 -2.126415 4.407337 2.997741 9.30652 -7.938554 1.193064 20.2545 7.41294 4.066097 -26.1939 9.299635 5.920505 -18.28804 11.23497 85.65033 35.22746 -19.31111 -0 0 14.51642 -9.291904 9.794983 4.86455 7.213933 -21.11482 -0.7615695 -92.2452 21.35248 19.71501 0 0 -15.47322 12.1995 14.4048 -0.864394
0.8001806 103.7084 5.261191 -0.554291 -1.040453 0.1936534 6.187131 -21.47695 7.636083 -0 34.80477 -0 -7.594279 -13.31245 -4.330193 -5.10434 11.40019 -20.12838 -0 7.892997 -0 7.35471 -17.36821 22.81863 -2.137044 -2.092788 4.273932 3.115986 9.281472 -8.070381 1.182503 20.23538 7.460216 4.019375 -26.43613 9.372091 5.873419 -18.09815 11.24639 85.96509 35.06178 -19.78649 -0 0 13.95446 -9.275397 9.836356 5.001415 7.173478 -21.1802 -0.7495125 -92.00457 21.5961 19.28931 0 0 -16.07462 12.02688 14.30799 -0.5458343
1.017952 103.5723 7.476299 -0.6660138 -0.07633879 0.3689844 6.580385 -24.73629 6.984819 -0 31.39703 -0 -7.242316 -10.86302 -3.566346 -5.291963 12.15074 -19.55396 -0 8.618989 -0 6.301753 -19.30057 21.93592 -2.118915 -2.056192 4.147936 3.228426 9.258925 -8.196159 1.171539 20.21951 7.496261 3.969089 -26.65551 9.42627 5.82492 -17.92235 11.26032 86.25781 34.88537 -20.22776 -0 0 13.42319 -9.267782 9.873578 5.153834 7.119312 -21.23604 -0.7456464 -91.77748 21.86642 18.89866 0 0 -16.65943 11.79212 14.20864 -0.1511843
1.215976 103.2974 10.07867 -0.8429772 0.9548338 0.6033993 6.923206 -27.81336 6.259833 -0 27.59896 -0 -6.980975 -8.442793 -2.843542 -5.374674 12.7818 -18.80023 -0 9.358005 -0 4.927111 -20.99297 20.65518 -2.100394 -2.022698 4.017511 3.343602 9.23939 -8.327906 1.159771 20.19985 7.537652 3.921324 -26.88172 9.487119 5.777581 -17.74068 11.27436 86.56639 34.71384 -20.69168 -0 0 12.8753 -9.261741 9.922332 5.296847 7.073237 -21.3044 -0.7418368 -91.53596 22.11037 18.4841 0 0 -17.25685 11.59609 14.10821 0.1953738
1.398715 102.8889 13.16134 -1.113107 2.023104 0.9075779 7.252171 -30.57136 5.553005 -0 23.73054 -0 -6.810195 -6.214574 -2.244094 -5.31512 13.28899 -17.88358 -0 10.30036 -0 3.22608 -22.23746 18.92212 -2.081789 -1.980168 3.891883 3.453149 9.234839 -8.458489 1.142157 20.17616 7.577283 3.878626 -27.08234 9.524982 5.731441 -17.55882 11.2954 86.8631 34.53943 -21.13496 -0 0 12.31864 -9.311272 9.982691 5.474688 7.023704 -21.38121 -0.7493728 -91.26613 22.3118 18.04838 0 0 -17.86482 11.39025 13.97077 0.5509848
1.572207 102.3883 16.80485 -1.485314 3.020419 1.284707 7.594497 -32.72719 4.931344 -0 20.21459 -0 -6.791567 -4.286019 -1.827399 -5.089704 13.65144 -16.832 -0 11.81938 -0 1.303317 -22.74592 16.78618 -2.063359 -1.924613 3.775262 3.553066 9.250405 -8.584918 1.116872 20.1481 7.612257 3.842191 -27.24218 9.52828 5.687093 -17.37963 11.32577 87.13694 34.36175 -21.54045 -0 0 11.75983 -9.437098 10.05566 5.701297 6.967484 -21.46585 -0.7730856 -90.96303 22.46 17.59324 0 0 -18.47973 11.16089 13.783 0.9304932
1.744519 101.8859 21.0663 -1.949763 3.818203 1.723533 7.975474 -33.96845 4.450977 -0 17.49345 -0 -7.014203 -2.714798 -1.614903 -4.697226 13.81225 -15.69324 -0 14.42407 -0 -0.6710162 -22.24779 14.38539 -2.045489 -1.853168 3.67595 3.635861 9.289356 -8.69949 1.083382 20.11789 7.635845 3.812172 -27.33809 9.4829 5.645465 -17.21349 11.36672 87.36613 34.18235 -21.8749 -0 0 11.22777 -9.653403 10.13775 5.985893 6.898842 -21.55144 -0.8184017 -90.63586 22.55616 17.14307 0 0 -19.07897 10.88081 13.53921 1.36358
1.925112 101.5193 25.96123 -2.460453 4.282864 2.189572 8.376994 -33.97388 4.126084 -0 15.88588 -0 -7.578438 -1.525539 -1.57078 -4.169371 13.64233 -14.53941 -0 18.63803 -0 -2.508699 -20.5738 11.94528 -2.028767 -1.766129 3.604156 3.692478 9.350936 -8.791317 1.043253 20.08992 7.640255 3.787931 -27.34736 9.379377 5.607738 -17.07572 11.41714 87.52462 34.00631 -22.09896 -0 0 10.76822 -9.959731 10.22181 6.325393 6.812836 -21.62618 -0.8883898 -90.30803 22.61259 16.74009 0 0 -19.62321 10.52436 13.2465 1.876941
2.121787 101.4521 31.43963 -2.932216 4.320695 2.623755 8.721267 -32.4855 3.936767 -0 15.44612 -0 -8.52879 -0.7802951 -1.614592 -3.568896 12.91104 -13.46455 -0 24.80167 -0 -4.111099 -17.74719 9.722705 -2.014278 -1.664399 3.573676 3.71081 9.433481 -8.845123 0.998851 20.06984 7.617114 3.769762 -27.24366 9.20879 5.575416 -16.98623 11.47518 87.57791 33.84125 -22.16034 -0 0 10.44138 -10.35533 10.29866 6.71369 6.705035 -21.67399 -0.9851367 -90.01087 22.64097 16.43902 0 0 -20.05774 10.06825 12.91477 2.492546
2.333432 101.8277 37.36006 -3.246491 3.896224 2.949716 8.88348 -29.37837 3.852208 -0 15.86996 -0 -9.777113 -0.6339973 -1.659074 -2.982374 11.29975 -12.56321 -0 32.83992 -0 -5.523332 -14.05131 7.980442 -2.003752 -1.547089 3.6013 3.676153 9.53795 -8.842763 0.9518965 20.0626 7.55922 3.760389 -26.99641 8.960615 5.549807 -16.96538 11.53987 87.48551 33.69393 -21.99674 -0 0 10.30962 -10.85365 10.36055 7.150584 6.572619 -21.67827 -1.110959 -89.77118 22.63607 16.29092 0 0 -20.32338 9.499027 12.54466 3.218292
2.540655 102.7007 43.48208 -3.276886 3.011705 3.088272 8.749232 -24.74272 3.844578 -0 16.49701 -0 -11.0604 -1.293914 -1.657058 -2.499611 8.494541 -11.86894 -0 42.05811 -0 -6.856303 -10.0519 6.996347 -1.999441 -1.410079 3.703364 3.573821 9.670132 -8.767274 0.9026346 20.07025 7.46261 3.765175 -26.57437 8.623701 5.530631 -17.027 11.61194 87.21066 33.56396 -21.54881 -0 0 10.41829 -11.49056 10.40505 7.647125 6.416025 -21.62741 -1.268996 -89.59698 22.56299 16.32079 0 0 -20.37422 8.822969 12.11889 4.036839
2.70444 103.9723 49.50785 -2.943092 1.669811 2.977519 8.298839 -18.9628 3.865808 -0 16.48429 -0 -11.98318 -2.851425 -1.62361 -2.165372 4.370156 -11.27015 -0 51.05386 -0 -8.089132 -6.522751 7.028802 -2.00346 -1.248394 3.887933 3.395303 9.836737 -8.609423 0.8512939 20.09173 7.328781 3.789345 -25.96013 8.195969 5.513911 -17.17006 11.69192 86.73974 33.4375 -20.78775 -0 0 10.77479 -12.30773 10.43642 8.216942 6.240989 -21.51875 -1.460368 -89.47197 22.36694 16.51013 0 0 -20.19529 8.074854 11.61089 4.897866
2.787173 105.3813 55.1854 -2.284178 -0.1088626 2.597506 7.663972 -12.70046 3.812 -0 15.21929 -0 -12.17913 -5.096875 -1.60343 -1.908347 -0.833558 -10.49339 -0 57.93462 -0 -8.916356 -4.182264 8.162041 -2.016915 -1.062268 4.148287 3.143708 10.03506 -8.371088 0.8016353 20.12631 7.1642 3.833012 -25.1672 7.696952 5.491255 -17.37816 11.77579 86.09562 33.28861 -19.73587 -0 0 11.34866 -13.31043 10.45931 8.853889 6.058176 -21.35526 -1.678671 -89.37321 22.01418 16.81038 0 0 -19.80038 7.310262 11.01462 5.73099
2.79203 106.59 60.42308 -1.489104 -2.175681 1.983197 7.073431 -6.679001 3.544571 -0 12.7679 -0 -11.54231 -7.540956 -1.599285 -1.525977 -6.548346 -9.252526 -0 60.94831 -0 -8.884486 -3.298828 10.1476 -2.039313 -0.8622898 4.467724 2.831944 10.2449 -8.05956 0.7631495 20.17855 6.975515 3.888097 -24.24293 7.168561 5.452525 -17.63536 11.85291 85.32256 33.09053 -18.44868 -0 0 12.10922 -14.43296 10.46653 9.51608 5.877558 -21.13307 -1.906696 -89.3095 21.53861 17.19791 0 0 -19.19979 6.573428 10.37223 6.486308
2.782612 107.323 65.32286 -0.8146253 -4.162593 1.205035 6.685947 -1.363084 2.996353 -0 9.860008 -0 -10.33932 -9.726894 -1.538114 -0.8069823 -12.17367 -7.499809 -0 59.22204 -0 -7.825718 -3.519801 12.453 -2.067826 -0.6695302 4.834594 2.476373 10.43232 -7.678693 0.7483087 20.25725 6.765519 3.939687 -23.26046 6.661801 5.390557 -17.94996 11.91096 84.45117 32.82597 -16.97067 -0 0 13.07214 -15.54718 10.43393 10.13784 5.699395 -20.83056 -2.118003 -89.34996 21.05364 17.73334 0 0 -18.36974 5.862089 9.769067 7.178815
2.852097 107.4533 70.09989 -0.4334123 -5.590318 0.3402582 6.463666 3.177158 2.277141 -0 7.335482 -0 -9.029107 -11.57647 -1.338773 0.2944166 -17.31686 -5.534056 -0 53.06701 -0 -6.136943 -4.169744 14.49934 -2.096368 -0.5104286 5.253231 2.094176 10.56559 -7.229723 0.7653291 20.36571 6.534802 3.970598 -22.30975 6.219291 5.304916 -18.36334 11.94575 83.48123 32.4869 -15.31614 -0 0 14.30353 -16.51363 10.33192 10.66457 5.509167 -20.41472 -2.283838 -89.60904 20.71139 18.56368 0 0 -17.26837 5.120793 9.292189 7.899404
3.068825 106.9861 74.96307 -0.3475803 -6.159787 -0.5307621 6.219296 7.102055 1.65667 -0 5.710702 -0 -7.916863 -13.38532 -1.033073 1.598082 -21.70593 -3.835492 -0 43.75728 -0 -4.529523 -4.709165 15.91112 -2.117761 -0.4036768 5.734755 1.702594 10.63633 -6.723405 0.8114176 20.4931 6.285827 3.969708 -21.46432 5.856187 5.201239 -18.9165 11.96574 82.41016 32.06754 -13.50387 -0 0 15.84879 -17.25845 10.14817 11.08418 5.288305 -19.87329 -2.389446 -90.16445 20.60203 19.8075 0 0 -15.90514 4.287696 8.969887 8.749209
3.447685 106.0049 80.04945 -0.4258456 -5.969576 -1.328366 5.768502 10.55363 1.40275 -0 5.259389 -0 -6.99581 -15.37144 -0.778458 2.762528 -25.00457 -2.804024 -0 33.17026 -0 -3.527635 -4.938568 16.66226 -2.129345 -0.3456562 6.262372 1.320815 10.66451 -6.194653 0.8740011 20.62034 6.028538 3.940009 -20.74329 5.558877 5.085952 -19.58082 11.98234 81.29902 31.56953 -11.63374 -0 0 17.60947 -17.81143 9.904734 11.42114 5.040627 -19.25287 -2.446692 -90.95112 20.6692 21.36975 0 0 -14.40933 3.382403 8.751881 9.714185
3.95972 104.6521 85.43407 -0.5032666 -5.457633 -2.003293 5.054344 13.5617 1.566141 -0 6.17507 -0 -6.132341 -17.15808 -0.6893973 3.422979 -26.87395 -2.595246 -0 23.44824 -0 -3.205266 -4.932068 17.03181 -2.134085 -0.3143227 6.773499 0.9756786 10.67826 -5.701342 0.9383686 20.73139 5.785969 3.895801 -20.13748 5.313109 4.965726 -20.24385 11.99894 80.28447 31.02829 -9.904656 -0 0 19.32178 -18.25226 9.65397 11.70527 4.799438 -18.6502 -2.480045 -91.77041 20.76933 22.93464 0 0 -12.99944 2.526847 8.566954 10.6418
4.559368 103.1325 91.17222 -0.465656 -5.124698 -2.555764 4.173676 16.09825 1.908829 -0 8.510023 -0 -5.321442 -17.81699 -0.7046628 3.369704 -27.19181 -3.08681 -0 16.40628 -0 -3.280023 -4.87428 17.38115 -2.13605 -0.2880437 7.194948 0.6955695 10.69349 -5.298216 0.9937955 20.81807 5.586132 3.851383 -19.65008 5.120383 4.850394 -20.78501 12.01268 79.49414 30.51443 -8.511608 -0 0 20.71172 -18.6361 9.450885 11.95322 4.60101 -18.15442 -2.505561 -92.42792 20.8066 24.18851 0 0 -11.86563 1.848195 8.382788 11.37561
5.206943 101.6955 97.31629 -0.2815505 -5.256228 -3.010226 3.277959 18.12511 2.107696 -0 12.19989 -0 -4.694191 -16.54306 -0.6785541 2.623246 -26.12103 -4.011017 -0 12.81682 -0 -3.400211 -4.919025 17.9204 -2.137525 -0.2561963 7.485385 0.495795 10.71213 -5.012817 1.035408 20.87985 5.445833 3.814302 -19.28805 4.985959 4.749825 -21.1413 12.0205 78.97843 30.09323 -7.548497 -0 0 21.6392 -18.977 9.326028 12.16747 4.462321 -17.80729 -2.52913 -92.83178 20.77361 24.98434 0 0 -11.09805 1.394547 8.203838 11.86002
